<?xml version="1.0" standalone="no"?>
<!DOCTYPE svg PUBLIC "-//W3C//DTD SVG 20010904//EN"
 "http://www.w3.org/TR/2001/REC-SVG-20010904/DTD/svg10.dtd">
<svg version="1.0" xmlns="http://www.w3.org/2000/svg"
 width="300.000000pt" height="300.000000pt" viewBox="0 0 300.000000 300.000000"
 preserveAspectRatio="xMidYMid meet">
<metadata>
Created by potrace 1.10, written by Peter Selinger 2001-2011
</metadata>
<g transform="translate(0.000000,300.000000) scale(0.100000,-0.100000)"
fill="#000000" stroke="none">
<path d="M75 1606 c32 -42 42 -46 113 -46 l57 0 -3 -110 -3 -110 40 0 41 0 0
110 0 110 63 0 c66 0 71 3 116 63 13 16 1 17 -218 17 l-232 0 26 -34z"/>
<path d="M740 1621 c5 -11 22 -29 36 -40 24 -19 40 -21 161 -21 74 0 143 4
153 10 10 5 28 23 40 40 l21 30 -211 0 c-205 0 -210 -1 -200 -19z"/>
<path d="M1340 1555 l0 -85 155 0 155 0 0 -25 0 -25 -123 0 -123 0 -32 -33
c-18 -18 -32 -36 -32 -40 0 -4 86 -6 191 -5 l192 3 0 98 0 99 -152 -1 c-99 -1
-151 2 -151 9 0 6 43 10 118 10 l118 0 32 33 c18 18 32 36 32 40 0 4 -85 7
-190 7 l-190 0 0 -85z"/>
<path d="M1950 1490 l0 -150 146 0 146 0 37 38 36 37 -142 3 -143 3 0 109 0
110 -40 0 -40 0 0 -150z"/>
<path d="M2520 1632 c0 -4 15 -22 33 -40 l33 -32 118 0 c64 0 126 4 136 10 10
5 28 23 40 40 l21 30 -190 0 c-105 0 -191 -4 -191 -8z"/>
<path d="M755 1496 c14 -19 33 -37 41 -40 9 -3 75 -6 147 -6 139 1 140 1 186
53 l24 27 -212 0 -212 0 26 -34z"/>
<path d="M2530 1523 c-1 -2 -1 -42 -1 -90 l-1 -88 36 -3 36 -3 0 65 0 66 105
0 105 0 0 -65 0 -65 40 0 40 0 0 93 0 92 -180 0 c-99 0 -180 -1 -180 -2z"/>
<path d="M767 1380 l42 -40 131 0 131 0 42 40 42 39 -215 0 -215 0 42 -39z"/>
</g>
</svg>
